<?xml version="1.0" standalone="no"?>
<!DOCTYPE svg PUBLIC "-//W3C//DTD SVG 20010904//EN"
 "http://www.w3.org/TR/2001/REC-SVG-20010904/DTD/svg10.dtd">
<svg version="1.0" xmlns="http://www.w3.org/2000/svg"
 width="864.000000pt" height="864.000000pt" viewBox="0 0 864.000000 864.000000"
 preserveAspectRatio="xMidYMid meet">
<metadata>
Created by potrace 1.14, written by Peter Selinger 2001-2017
</metadata>
<g transform="translate(0.000000,864.000000) scale(0.100000,-0.100000)"
fill="#000000" stroke="none">
<path d="M2755 6818 c-245 -17 -707 -113 -920 -193 -259 -97 -549 -262 -760
-432 -120 -97 -298 -272 -382 -375 -311 -380 -530 -911 -569 -1383 -8 -102 -8
-449 0 -546 33 -366 203 -835 424 -1162 277 -414 689 -764 1112 -947 180 -79
451 -158 660 -195 64 -11 169 -15 429 -15 326 0 350 1 465 25 606 122 1079
391 1489 843 265 293 473 683 572 1072 69 271 76 341 80 814 4 439 8 509 35
641 65 320 233 636 467 880 271 283 595 495 1005 659 145 58 324 107 568 156
280 56 330 63 545 75 177 10 249 17 290 27 37 10 38 11 17 19 -27 10 -727 17
-2607 24 -709 3 -1513 8 -1785 11 -758 9 -1015 10 -1135 2z"/>
</g>
</svg>
