<?xml version="1.0" standalone="no"?>
<!DOCTYPE svg PUBLIC "-//W3C//DTD SVG 20010904//EN"
 "http://www.w3.org/TR/2001/REC-SVG-20010904/DTD/svg10.dtd">
<svg version="1.0" xmlns="http://www.w3.org/2000/svg"
 width="723.000000pt" height="723.000000pt" viewBox="0 0 723.000000 723.000000"
 preserveAspectRatio="xMidYMid meet">
<metadata>
Created by potrace 1.14, written by Peter Selinger 2001-2017
</metadata>
<g transform="translate(0.000000,723.000000) scale(0.100000,-0.100000)"
fill="#000000" stroke="none">
<path d="M2307 6357 c3 -5 -4 -6 -16 -2 -13 4 -21 2 -21 -5 0 -6 5 -8 12 -4 7
4 8 3 4 -5 -4 -6 -11 -9 -16 -6 -5 3 -13 -2 -18 -11 -7 -13 -13 -14 -30 -5
-26 14 -35 14 -26 0 4 -8 0 -8 -15 0 -11 7 -21 8 -21 4 0 -4 -5 -1 -11 7 -9
13 -10 13 -6 0 2 -8 9 -14 15 -13 5 1 16 -5 24 -14 11 -14 11 -16 -2 -8 -8 5
-23 11 -34 12 -16 3 -17 1 -5 -13 13 -16 12 -16 -8 -4 -18 12 -24 12 -39 -1
-15 -12 -17 -12 -9 0 6 11 4 13 -7 8 -12 -4 -15 0 -12 16 4 19 3 19 -4 4 -4
-10 -11 -18 -15 -18 -21 2 -27 0 -27 -10 0 -8 5 -8 15 1 20 16 19 3 0 -17 -8
-8 -12 -19 -9 -25 4 -7 2 -8 -4 -4 -6 4 -9 13 -5 22 8 21 -20 14 -29 -7 -5
-13 -16 -16 -43 -13 -24 2 -33 -1 -29 -8 5 -7 2 -8 -6 -3 -7 4 -16 2 -21 -6
-6 -10 -9 -11 -9 -1 0 6 -10 12 -22 12 -19 0 -20 -2 -8 -10 12 -8 12 -10 1
-10 -8 0 -20 8 -27 18 -13 16 -14 16 -8 0 7 -20 -11 -25 -20 -5 -4 6 -4 2 -2
-11 2 -12 0 -20 -4 -17 -5 3 -11 1 -15 -4 -8 -14 -36 -1 -28 13 3 6 0 5 -8 -2
-12 -11 -12 -14 1 -22 8 -5 11 -10 5 -10 -22 0 -34 15 -25 30 6 8 10 20 9 25
0 6 -8 -6 -18 -25 -10 -19 -17 -41 -14 -50 4 -13 3 -13 -5 0 -6 8 -8 19 -4 25
3 5 -2 4 -11 -4 -9 -7 -14 -18 -11 -23 4 -6 0 -7 -12 -1 -17 8 -28 8 -57 4 -4
0 -3 -10 3 -21 8 -16 8 -20 -2 -18 -7 2 -12 -2 -11 -9 1 -6 -5 -10 -15 -8 -9
1 -24 -1 -33 -6 -8 -4 -21 -4 -28 0 -16 10 -51 2 -51 -11 0 -5 8 -4 19 2 14 7
22 7 27 -2 4 -7 3 -8 -4 -4 -7 4 -12 2 -12 -4 0 -6 -4 -9 -9 -6 -5 4 -12 0
-14 -6 -4 -10 -6 -10 -6 -1 -1 7 -11 17 -23 23 -19 9 -21 9 -8 -2 30 -26 23
-45 -17 -46 -20 -1 -42 3 -49 9 -9 7 -12 5 -10 -8 2 -11 10 -17 22 -15 18 2
18 2 1 -9 -13 -8 -22 -8 -32 1 -10 8 -15 8 -21 -1 -4 -7 -3 -9 3 -6 6 4 13 1
16 -6 3 -7 -5 -13 -19 -13 -15 -1 -21 3 -17 12 3 8 0 14 -6 14 -6 0 -10 -3
-10 -7 4 -26 -2 -53 -11 -48 -6 4 -8 11 -5 16 4 5 -5 4 -19 -3 -14 -6 -26 -15
-26 -20 0 -5 -5 -6 -12 -2 -7 4 -8 3 -4 -5 6 -9 11 -9 22 0 10 8 14 8 14 0 0
-11 -13 -15 -37 -12 -6 1 -14 -3 -18 -9 -3 -5 2 -10 12 -10 12 -1 8 -5 -12
-14 -16 -7 -36 -11 -43 -8 -7 2 -12 -2 -10 -9 3 -15 -4 -15 -37 -3 -17 6 -16
3 5 -15 14 -12 18 -19 10 -15 -8 5 -22 9 -30 11 -11 1 -11 -1 3 -11 16 -12 16
-14 1 -20 -24 -9 -35 2 -30 31 3 14 2 22 -2 18 -7 -6 -8 -10 -11 -36 0 -5 -6
-7 -11 -4 -6 4 -9 3 -8 -2 3 -11 -25 -53 -35 -53 -4 0 -5 5 -1 12 5 7 3 8 -6
3 -10 -6 -7 -13 11 -27 22 -17 22 -18 2 -9 -25 13 -56 4 -47 -13 3 -6 -2 -2
-12 9 -15 18 -16 18 -10 2 3 -10 6 -23 6 -28 0 -4 8 -6 18 -3 13 5 14 4 3 -4
-16 -11 -44 -5 -36 8 3 5 0 12 -6 16 -7 4 -9 3 -6 -3 4 -6 0 -16 -8 -23 -8 -7
-15 -21 -15 -31 0 -11 -4 -19 -9 -19 -6 0 -8 9 -6 20 2 12 0 18 -6 15 -5 -4
-7 -11 -4 -16 7 -10 -35 -30 -47 -22 -5 2 -8 -1 -8 -6 0 -13 2 -13 33 -2 20 8
25 7 23 -4 -1 -8 -6 -18 -11 -22 -4 -4 -5 -2 -1 5 4 6 3 12 -2 12 -17 0 -21
-12 -11 -37 6 -16 6 -22 -1 -18 -6 3 -10 12 -10 20 0 16 -27 28 -27 12 0 -7
-2 -19 -4 -27 -2 -8 2 -14 9 -13 17 4 15 -2 -5 -18 -10 -8 -14 -9 -10 -2 4 6
3 14 -3 18 -5 3 -10 1 -10 -6 0 -7 -3 -9 -6 -6 -4 4 -1 13 5 21 8 10 9 16 1
21 -6 4 -9 1 -8 -7 2 -7 -4 -12 -13 -12 -20 2 -19 -24 2 -37 12 -7 12 -9 0 -9
-8 0 -24 -8 -35 -17 -21 -18 -21 -18 -4 2 12 14 14 25 8 35 -7 11 -10 11 -11
3 -4 -34 -6 -38 -17 -36 -7 2 -9 -4 -5 -14 4 -10 2 -14 -5 -9 -6 3 -13 2 -17
-4 -4 -6 -12 -7 -18 -3 -7 4 -5 -1 3 -11 16 -20 23 -49 10 -41 -4 3 -19 -6
-31 -20 -13 -13 -32 -25 -41 -25 -10 0 -18 -4 -18 -10 0 -5 8 -7 18 -4 13 5
14 4 3 -4 -8 -6 -23 -9 -33 -7 -12 3 -18 -1 -15 -8 2 -7 11 -11 21 -9 9 2 16
-1 16 -7 0 -5 -8 -8 -17 -7 -19 3 -48 -28 -39 -42 3 -5 -1 -9 -9 -9 -16 0 -15
16 2 35 7 7 13 19 13 25 0 14 -34 -33 -36 -51 -2 -7 4 -16 12 -19 18 -7 18
-20 -1 -20 -8 0 -12 4 -10 8 3 4 -3 10 -13 14 -24 11 -45 15 -37 7 4 -4 11 -7
16 -7 5 0 9 -4 8 -8 0 -4 7 -20 17 -35 13 -20 14 -24 2 -15 -8 7 -19 9 -23 5
-5 -4 -4 0 0 8 8 12 5 12 -15 -1 -17 -11 -25 -25 -24 -43 1 -22 -1 -24 -14
-14 -14 12 -14 10 -2 -12 l13 -25 -22 19 c-11 11 -21 14 -21 8 0 -7 4 -12 9
-12 6 0 9 -9 8 -19 -1 -20 -25 -18 -39 3 -5 8 -8 7 -8 -1 0 -7 9 -17 21 -23
11 -7 18 -14 16 -17 -3 -2 -15 0 -26 7 -13 6 -21 7 -21 1 0 -5 10 -13 22 -17
19 -6 19 -7 4 -16 -9 -5 -14 -13 -12 -17 3 -4 -1 -8 -9 -8 -11 0 -12 4 -4 13
6 8 6 14 0 18 -5 4 -12 2 -16 -4 -3 -5 -3 -10 1 -10 4 0 -1 -10 -12 -21 -14
-16 -15 -23 -6 -26 6 -3 12 -9 12 -14 0 -6 -5 -7 -10 -4 -7 4 -9 -3 -6 -19 3
-16 0 -25 -7 -23 -6 1 -12 -4 -13 -10 -1 -7 -2 -16 -3 -20 0 -3 -11 2 -23 13
-13 10 -20 15 -15 10 4 -5 -1 -18 -10 -29 -10 -11 -12 -17 -6 -13 7 4 13 3 13
-3 0 -5 -6 -12 -12 -14 -8 -4 -9 -6 -2 -6 6 -1 17 6 24 14 9 11 9 15 1 15 -7
0 -9 5 -5 11 4 8 9 7 15 -2 4 -7 4 -18 -1 -25 -6 -6 -7 -14 -3 -17 5 -6 -28
-11 -49 -8 -4 0 -5 -8 -3 -19 3 -14 -2 -20 -13 -20 -15 0 -15 -2 -2 -10 14 -9
13 -11 -9 -14 -5 0 -13 -5 -18 -10 -5 -6 -2 -6 6 -1 11 6 13 4 8 -7 -3 -9 -3
-19 1 -22 10 -11 9 -45 -1 -39 -6 4 -8 0 -4 -10 4 -11 2 -14 -8 -11 -12 5 -12
10 3 31 16 26 16 26 -6 14 -12 -7 -20 -16 -17 -21 3 -5 -3 -14 -12 -20 -12 -7
-13 -10 -3 -7 8 2 21 -2 29 -10 12 -13 11 -14 -9 -8 -15 5 -20 4 -16 -4 8 -13
-23 -63 -34 -56 -5 3 -12 0 -16 -6 -4 -8 -3 -9 4 -5 13 8 16 -6 4 -18 -7 -8
-8 -13 -11 -42 0 -9 -6 -12 -13 -8 -6 4 -8 3 -4 -4 3 -6 2 -13 -4 -17 -6 -4
-8 -11 -5 -16 4 -5 3 -15 -2 -21 -4 -7 -9 -22 -10 -33 -2 -10 -9 -23 -16 -27
-6 -4 -7 -8 -2 -8 6 0 11 -9 12 -19 1 -15 -3 -18 -15 -14 -14 6 -15 5 -2 -9 8
-9 20 -13 25 -10 6 3 2 -4 -8 -16 -11 -11 -16 -25 -13 -31 4 -5 2 -12 -4 -16
-6 -4 -8 -11 -5 -16 3 -5 0 -7 -7 -4 -8 3 -14 -4 -14 -20 -1 -14 2 -22 7 -19
5 3 9 0 9 -5 0 -6 -4 -11 -9 -11 -15 0 -13 -1212 2 -1222 9 -6 9 -8 -2 -8 -11
0 -11 -3 0 -17 8 -9 9 -14 3 -10 -12 7 -13 -81 -1 -100 4 -6 1 -14 -5 -16 -9
-4 -8 -6 2 -6 16 -1 45 -33 41 -45 -1 -4 8 -16 21 -27 l23 -20 -27 17 c-15 9
-25 21 -21 27 4 6 1 7 -7 2 -8 -5 -11 -4 -7 2 4 6 0 16 -7 22 -11 9 -14 9 -12
-1 1 -7 5 -18 9 -25 4 -6 4 -13 0 -16 -5 -2 -2 -2 4 -1 19 5 16 -13 -5 -26
-14 -9 -14 -11 -1 -7 9 3 23 0 30 -6 11 -10 11 -9 0 6 -8 9 -9 17 -3 17 14 0
23 -28 11 -35 -5 -4 -7 -10 -4 -15 3 -5 -3 -14 -12 -20 -16 -9 -16 -10 -1 -8
9 2 17 0 17 -5 0 -4 7 -20 15 -36 9 -16 12 -32 8 -36 -4 -5 -1 -5 6 -1 9 5 9
12 1 27 -15 30 -19 59 -8 59 6 0 9 -6 6 -12 -2 -7 4 -30 15 -52 11 -21 15 -35
9 -31 -15 9 -14 -1 4 -35 13 -26 13 -29 -3 -33 -16 -4 -16 -5 1 -6 19 -1 22
-12 7 -27 -7 -7 -6 -11 4 -11 9 0 13 9 11 24 -1 13 2 23 6 23 14 0 10 -68 -3
-73 -10 -4 -10 -6 -1 -6 6 -1 19 9 27 20 15 22 15 22 13 1 0 -11 -4 -19 -8
-16 -4 2 -10 -3 -13 -12 -3 -8 -2 -12 4 -9 6 3 10 1 10 -4 0 -6 -5 -11 -11
-11 -6 0 -4 -7 5 -15 8 -9 12 -23 9 -33 -3 -9 -3 -14 1 -10 4 3 8 12 10 20 1
7 6 19 10 27 7 11 5 13 -7 8 -11 -4 -14 -2 -10 9 4 11 9 12 16 5 14 -14 19
-51 7 -51 -6 0 -10 -5 -10 -11 0 -6 7 -8 15 -5 9 3 18 -1 21 -9 4 -8 11 -12
17 -8 6 3 7 1 3 -6 -4 -6 -11 -9 -16 -6 -4 3 -11 -2 -14 -11 -3 -8 -2 -13 3
-10 13 8 21 -20 10 -31 -6 -6 -4 -10 5 -10 8 0 13 4 10 9 -3 4 2 5 10 2 19 -7
21 -20 4 -30 -7 -4 -8 -3 -4 4 5 8 2 10 -8 6 -28 -11 -17 -23 17 -19 17 2 26
1 20 -2 -7 -2 -13 -11 -13 -19 0 -9 4 -13 9 -10 11 7 23 -22 15 -35 -3 -5 -10
-6 -16 -3 -7 4 -8 2 -4 -4 5 -9 13 -9 28 -1 12 6 18 7 14 1 -3 -5 1 -12 9 -16
12 -4 13 -11 5 -32 -9 -24 -9 -26 5 -14 12 10 18 11 28 1 9 -10 8 -11 -7 -5
-13 5 -17 4 -12 -4 4 -7 2 -12 -6 -12 -7 0 -2 -7 10 -16 19 -13 21 -18 10 -32
-8 -9 -8 -13 -2 -9 7 4 14 1 17 -7 3 -8 16 -12 31 -11 17 2 24 -1 19 -8 -4 -6
0 -8 9 -5 9 4 15 0 15 -8 0 -18 -6 -18 -27 1 -15 13 -17 13 -17 0 0 -8 6 -15
14 -15 16 0 17 -12 1 -28 -8 -8 -9 -12 -1 -12 6 0 13 5 15 12 6 18 36 18 34 0
0 -9 4 -17 11 -17 6 0 14 -3 17 -8 3 -4 3 -5 -1 -2 -3 3 -13 -1 -21 -8 -13
-10 -14 -9 -7 3 7 12 6 13 -7 3 -8 -7 -18 -10 -21 -6 -4 3 -7 1 -7 -6 0 -6 6
-11 13 -9 6 1 23 -3 37 -10 23 -12 24 -12 6 2 -11 9 -15 16 -9 16 7 0 15 -5
18 -10 4 -6 11 -7 17 -4 6 4 5 -2 -1 -15 -9 -16 -9 -21 0 -19 6 2 14 -3 16
-10 3 -8 -2 -10 -14 -6 -14 5 -15 4 -4 -4 8 -6 20 -8 28 -5 7 3 13 -2 13 -11
0 -10 -6 -13 -17 -10 -15 5 -16 4 -3 -5 11 -7 22 -6 40 6 23 15 24 15 11 0 -9
-11 -10 -17 -2 -17 6 0 11 -8 11 -17 -1 -17 -2 -17 -14 0 -8 10 -17 14 -20 9
-3 -6 1 -12 9 -16 8 -3 12 -12 9 -21 -3 -8 -1 -15 6 -15 6 0 9 4 6 9 -3 5 2
15 11 22 15 12 16 12 10 -5 -10 -24 12 -39 32 -23 11 9 13 9 8 0 -4 -6 -3 -15
3 -18 8 -5 8 -11 0 -20 -8 -9 -8 -15 0 -20 6 -3 7 -12 3 -18 -4 -7 2 -5 12 3
17 14 18 13 12 -3 -5 -12 -3 -16 4 -11 7 4 10 1 7 -7 -3 -8 -11 -13 -17 -11
-7 1 -10 -2 -6 -8 5 -8 11 -8 19 -1 7 6 16 7 21 3 4 -4 2 4 -4 16 -7 13 -11
26 -8 28 2 2 12 -14 23 -36 19 -39 40 -57 27 -22 -7 16 -6 16 11 -1 10 -9 27
-22 38 -28 19 -10 19 -11 1 -31 -18 -21 -18 -21 6 -8 15 7 21 8 17 1 -4 -6 -3
-11 3 -11 5 0 12 5 14 10 3 6 4 5 3 -2 -2 -7 4 -22 13 -33 15 -19 15 -19 -4
-4 -33 26 -43 30 -51 18 -4 -7 -3 -9 3 -6 6 4 22 -2 36 -13 14 -11 32 -18 40
-15 9 4 18 -4 27 -24 7 -17 17 -28 23 -24 6 4 8 0 4 -10 -6 -16 3 -21 30 -18
7 1 13 -3 13 -9 0 -5 -4 -10 -10 -10 -5 0 -10 -5 -10 -11 0 -5 4 -8 9 -5 5 4
11 3 14 -1 2 -5 3 -3 1 4 -1 6 6 13 17 16 16 4 18 3 9 -7 -7 -9 -7 -21 -1 -37
8 -20 10 -21 10 -5 1 11 4 16 8 13 3 -4 12 -2 20 5 11 9 13 8 11 -3 -2 -8 3
-13 10 -11 8 1 11 -2 6 -9 -5 -9 -2 -10 12 -5 10 4 15 4 12 0 -4 -4 -3 -16 3
-27 7 -13 7 -17 1 -13 -6 3 -13 2 -16 -3 -9 -14 19 -7 40 9 18 14 18 14 5 -3
-10 -12 -11 -21 -4 -28 8 -8 13 -7 18 2 6 8 4 10 -5 4 -9 -5 -11 -4 -6 3 5 9
12 8 26 -1 22 -13 27 -37 9 -37 -8 0 -8 -4 -1 -13 13 -15 62 -21 62 -7 0 5 -6
8 -13 6 -6 -1 -9 -1 -4 1 4 3 4 9 1 14 -3 6 -12 2 -20 -8 -7 -10 -14 -13 -14
-6 0 6 5 15 10 18 6 4 7 12 4 18 -4 7 4 2 18 -11 14 -13 29 -38 32 -55 l7 -32
15 25 15 25 -7 -25 c-6 -22 -5 -23 10 -11 18 15 22 1 5 -16 -8 -8 -7 -13 2
-18 7 -5 10 -4 6 1 -3 5 1 18 9 28 12 17 13 16 9 -14 -3 -25 -1 -30 8 -21 16
16 27 13 21 -6 -3 -10 2 -5 11 10 13 23 35 30 35 11 0 -3 -4 -2 -10 1 -11 7
-12 4 -14 -36 -1 -14 3 -26 9 -26 6 0 11 8 11 18 0 10 -5 15 -11 12 -5 -4 -7
-2 -2 2 4 5 16 9 26 10 19 2 22 -10 7 -33 -4 -7 -4 -12 1 -11 22 4 34 -2 27
-13 -4 -7 -4 -10 1 -6 4 4 14 3 22 -4 12 -10 12 -7 2 15 -7 15 -16 24 -22 20
-6 -4 -7 -1 -2 7 6 10 11 9 22 -6 8 -10 21 -18 29 -16 8 2 14 -2 14 -8 0 -6
-4 -9 -8 -6 -4 2 -8 -4 -8 -14 0 -10 4 -16 8 -14 4 3 8 -1 8 -8 1 -7 10 -2 22
12 14 16 19 19 15 7 -5 -14 -2 -16 17 -11 16 4 25 0 30 -12 5 -14 4 -15 -9 -4
-12 10 -18 11 -28 1 -9 -10 -8 -11 7 -5 16 6 18 4 13 -10 -7 -18 4 -15 34 11
13 11 16 11 16 -2 0 -8 -5 -11 -11 -8 -6 4 -3 -3 8 -15 10 -12 21 -21 25 -20
3 0 8 -1 11 -2 20 -7 41 -7 47 2 3 6 1 8 -5 4 -6 -3 -13 -2 -17 4 -4 6 -12 7
-18 4 -7 -4 -6 -1 2 7 10 11 15 11 18 1 3 -6 8 -10 12 -7 5 2 17 -3 27 -11 10
-9 14 -13 7 -10 -6 4 -15 1 -19 -6 -4 -7 -4 -10 1 -6 4 4 17 2 29 -4 11 -7 28
-12 38 -13 15 -1 15 1 1 24 -13 22 -13 23 0 8 8 -9 23 -28 33 -42 15 -19 25
-23 56 -20 21 2 40 -1 44 -7 4 -6 3 -8 -4 -4 -6 3 -14 1 -18 -6 -4 -7 -4 -10
1 -6 4 4 14 0 22 -10 12 -15 12 -15 7 0 -4 12 -1 16 13 13 10 -2 19 -4 21 -5
1 -2 5 -3 10 -4 4 -1 14 -5 22 -11 13 -7 13 -6 2 7 -10 13 -10 18 -1 24 7 4 9
3 6 -3 -8 -13 41 -37 70 -34 18 2 22 -1 17 -16 -5 -14 -4 -15 4 -4 6 8 9 19 8
25 -1 6 2 1 8 -12 6 -12 15 -21 22 -18 6 2 17 -1 24 -7 9 -9 11 -9 7 -1 -12
20 25 26 42 7 10 -11 11 -13 2 -5 -8 6 -20 12 -25 12 -6 0 -3 -5 7 -11 10 -6
14 -15 10 -22 -4 -7 -1 -7 10 1 9 8 22 10 29 6 20 -13 38 -13 38 -2 0 6 -7 7
-16 4 -8 -3 -12 -2 -9 4 8 12 67 3 76 -12 4 -7 8 -6 12 3 5 12 7 12 15 0 9
-12 13 -12 26 -2 9 8 16 9 16 3 0 -12 18 -11 39 2 11 7 12 6 6 -5 -7 -11 -5
-11 10 1 11 9 16 10 11 3 -4 -7 -3 -13 3 -13 5 0 12 6 14 13 4 9 6 9 6 0 1 -7
6 -13 12 -13 5 0 7 5 4 10 -3 6 -1 10 4 10 6 0 11 -6 11 -12 0 -9 4 -8 10 2 6
10 10 11 10 3 0 -20 28 -15 33 4 4 17 5 17 6 1 1 -20 21 -25 21 -5 0 8 2 9 8
1 8 -13 50 -13 71 0 10 6 12 5 7 -2 -4 -7 -2 -12 3 -12 6 0 11 6 11 13 0 9 3
8 9 -2 7 -11 9 -11 14 0 4 10 6 10 6 2 1 -7 6 -13 12 -13 5 0 7 5 4 10 -3 6
-1 10 4 10 6 0 11 -6 11 -12 0 -9 4 -8 10 2 6 10 10 11 10 3 0 -7 8 -13 18
-13 14 0 15 2 2 10 -8 5 -10 10 -4 10 5 0 16 -6 22 -12 10 -10 15 -10 22 2 7
10 10 11 10 3 0 -7 5 -13 11 -13 5 0 8 4 4 9 -3 5 -1 13 5 16 6 4 9 1 8 -6 -4
-16 41 -19 61 -5 11 8 13 8 8 0 -4 -7 2 -11 18 -11 14 0 22 3 19 8 -3 5 0 9 5
9 6 0 11 -4 11 -8 0 -14 46 -8 66 8 17 14 18 13 6 -1 -11 -14 -8 -16 22 -15
33 1 34 2 18 20 -16 18 -16 18 6 5 12 -8 22 -17 22 -21 0 -3 8 -5 18 -3 9 1
16 9 16 17 -1 10 7 14 22 12 13 -1 26 2 30 7 3 5 13 5 24 -1 28 -15 34 -12 19
8 -13 16 -12 16 4 3 18 -14 18 -16 -5 -34 l-23 -18 25 12 c14 7 31 12 38 11 6
-2 12 2 12 8 0 6 -4 9 -9 6 -5 -3 -11 1 -15 9 -8 23 11 18 29 -7 15 -21 16
-21 13 -3 -2 11 -7 23 -13 27 -6 5 -5 8 3 8 7 0 17 -10 22 -22 l9 -23 0 22 c1
17 5 21 18 16 11 -4 14 -3 9 5 -5 8 -2 10 9 6 11 -5 13 -10 5 -19 -7 -8 -5
-12 5 -12 8 0 12 4 9 9 -5 7 27 13 49 9 5 -1 6 3 2 9 -4 6 -15 8 -26 5 -18 -6
-26 5 -13 18 8 8 54 -14 54 -26 0 -6 3 -7 7 -4 3 4 -2 17 -13 28 l-19 22 28
-18 c15 -9 27 -14 27 -10 0 4 6 2 14 -4 12 -10 13 -8 9 9 -4 15 -9 18 -18 10
-9 -7 -16 -6 -24 4 -8 10 -9 16 -1 21 6 4 9 3 8 -2 -3 -8 7 -14 20 -12 4 1 30
2 57 3 37 1 50 5 50 16 0 8 -6 14 -13 12 -8 -1 -11 2 -7 9 5 7 10 8 18 0 7 -7
16 -4 29 11 10 12 18 16 18 10 0 -7 0 -15 0 -19 0 -5 -5 -8 -12 -8 -6 0 -12
-8 -14 -18 -2 -18 -1 -18 16 -2 10 9 20 13 22 8 3 -4 3 -3 2 4 -2 7 3 19 11
27 8 7 11 16 8 20 -4 3 -4 6 0 6 3 0 13 -7 21 -16 9 -8 16 -11 16 -5 0 6 5 11
11 11 5 0 8 -4 5 -8 -3 -5 1 -9 9 -9 10 0 11 5 4 18 -11 21 -1 29 26 19 14 -5
24 -1 36 14 15 17 20 19 31 8 11 -11 10 -12 -3 -7 -10 4 -19 0 -23 -10 -4 -11
-2 -14 7 -8 6 4 17 8 22 8 6 0 10 10 10 23 0 12 5 22 10 21 6 0 9 -7 7 -15 -2
-8 5 -14 15 -14 10 0 14 4 8 8 -5 4 -11 16 -12 27 -1 19 -1 20 12 1 12 -16 17
-17 30 -6 9 7 28 14 43 16 15 1 29 2 31 3 2 1 -3 9 -10 18 -12 15 -12 16 4 10
9 -3 17 -2 17 2 0 5 -5 11 -12 13 -8 3 -6 7 5 11 9 3 19 1 23 -5 5 -7 2 -8 -6
-3 -9 6 -11 4 -5 -4 9 -16 26 -1 28 27 0 11 5 18 9 16 5 -3 6 -9 3 -14 -3 -4
4 -6 15 -3 11 3 23 9 26 14 3 5 -3 6 -13 3 -15 -5 -15 -4 -3 4 10 8 18 8 27 0
16 -13 17 4 2 19 -8 8 -8 13 0 18 7 4 10 1 9 -7 -2 -8 4 -12 16 -10 10 2 22
-2 27 -9 10 -16 18 -9 24 21 5 29 5 28 40 34 17 2 31 5 33 5 1 1 -2 11 -9 22
-8 15 -8 19 0 15 6 -4 11 -3 11 2 0 5 11 14 24 20 19 8 27 8 35 -2 6 -7 7 -17
3 -21 -4 -5 -1 -5 6 0 10 5 11 10 3 18 -16 16 -13 31 3 18 11 -9 16 -9 22 0 4
7 3 9 -3 6 -6 -4 -13 -1 -16 7 -6 15 9 16 31 2 11 -7 12 -4 2 13 -6 12 -16 18
-22 15 -7 -4 -8 -2 -4 5 6 8 12 9 20 2 7 -6 17 -7 21 -3 5 4 5 2 1 -5 -3 -6
-1 -15 6 -19 7 -4 10 -3 5 1 -4 5 0 16 8 25 13 14 13 17 0 17 -8 0 -12 -4 -9
-9 3 -4 -2 -5 -11 -1 -12 4 -13 8 -5 13 7 4 9 14 6 21 -4 8 0 5 8 -5 9 -11 16
-16 16 -12 0 5 6 3 13 -3 16 -13 28 -5 20 15 -3 8 -10 11 -16 7 -6 -3 -7 -1
-3 6 4 6 12 8 18 5 8 -5 9 -1 5 10 -4 11 -3 15 4 11 6 -4 8 -13 5 -21 -3 -7
-1 -16 3 -18 14 -9 20 5 11 28 -6 18 -5 23 8 23 10 0 22 -4 29 -9 8 -7 10 -3
6 11 -4 16 -1 21 16 21 11 0 21 4 21 10 0 5 -8 7 -17 4 -15 -5 -16 -4 -3 5 8
6 15 16 15 23 0 7 9 11 20 10 15 -3 17 -1 7 10 -9 12 -9 15 3 15 8 0 12 -4 9
-9 -3 -4 0 -8 6 -8 6 0 8 -5 4 -12 -4 -7 -3 -8 5 -4 6 4 9 11 6 16 -8 13 22
57 43 64 14 5 14 3 -2 -8 -18 -14 -18 -15 2 -13 11 0 19 6 18 12 -3 19 -17 35
-26 30 -5 -3 -11 -2 -14 3 -2 4 6 8 19 8 13 0 22 -3 19 -7 -10 -17 25 -15 39
2 9 10 13 19 7 19 -5 0 -14 -8 -19 -17 -6 -10 -11 -13 -11 -6 0 6 5 15 11 18
6 4 8 14 4 24 -5 13 -4 14 6 3 19 -18 28 -15 22 11 -4 21 -4 21 12 -3 l16 -25
-7 25 c-4 14 -12 29 -18 33 -7 5 -6 7 4 6 46 -5 58 1 53 24 -6 22 -6 22 14 -2
14 -17 22 -21 27 -12 5 7 2 10 -5 9 -7 -2 -14 5 -17 14 -2 13 2 16 17 13 12
-2 21 0 21 5 0 11 -30 21 -42 13 -7 -3 -8 -1 -4 6 9 14 47 11 59 -4 5 -6 7 -4
4 5 -2 8 -9 14 -14 13 -5 -1 -10 7 -10 18 -2 17 0 18 13 4 9 -8 19 -13 23 -11
10 6 7 58 -4 76 -5 9 0 8 13 -4 22 -19 30 -32 14 -22 -5 3 -9 -1 -9 -9 0 -8 4
-15 9 -15 8 0 12 15 8 39 -2 13 0 13 16 0 16 -13 16 -12 6 8 -17 31 -15 38 6
16 9 -10 14 -14 10 -9 -11 14 -10 28 1 21 5 -3 13 0 17 6 4 7 3 9 -2 6 -6 -3
-16 -2 -24 4 -13 7 -12 9 3 10 9 1 23 2 30 3 6 1 16 -3 20 -9 5 -6 7 -4 4 5
-2 8 -8 14 -13 13 -5 -1 -14 9 -21 23 l-11 24 29 -21 c19 -14 29 -16 27 -7 -2
7 4 12 12 10 10 -3 9 3 -5 19 -15 17 -16 21 -4 17 19 -7 47 8 36 19 -5 4 -12
2 -16 -6 -6 -10 -10 -9 -15 4 -3 9 -11 13 -17 9 -8 -4 -9 -3 -5 5 4 6 11 9 16
6 5 -3 12 -1 15 5 5 8 12 7 23 -2 13 -11 14 -11 4 8 -12 22 -7 34 12 34 6 0 5
-4 -2 -9 -10 -6 -10 -10 2 -20 11 -9 16 -9 22 0 5 8 3 9 -6 4 -10 -6 -12 -4
-7 8 3 9 2 19 -3 22 -7 4 -7 13 0 24 5 10 6 22 2 26 -4 5 -1 5 6 1 9 -5 9 -12
2 -26 -8 -16 -8 -18 4 -14 9 3 14 11 13 17 -1 7 3 11 9 10 6 -1 11 5 11 12 0
10 -4 12 -12 5 -9 -7 -14 -6 -18 5 -4 8 -3 14 1 14 20 -3 32 2 32 15 0 8 5 18
11 22 8 4 9 0 4 -15 -3 -11 -2 -21 3 -21 5 0 9 15 8 32 -1 25 3 33 16 33 9 0
20 4 25 9 4 5 3 6 -4 2 -7 -4 -17 3 -24 16 -11 21 -11 22 5 9 9 -8 19 -11 23
-7 3 3 1 6 -5 6 -7 0 -12 5 -12 11 0 5 4 8 9 5 5 -4 7 3 4 14 -3 11 0 20 6 20
18 0 26 -5 23 -13 -1 -5 2 -6 8 -2 7 4 3 16 -9 33 -16 23 -17 30 -6 45 10 13
14 15 17 5 4 -10 8 -11 20 -1 8 7 19 9 23 5 5 -4 5 -1 1 6 -6 10 -11 10 -22 1
-9 -7 -14 -8 -14 -1 0 6 5 14 11 17 6 4 8 13 5 21 -4 10 0 14 12 12 10 -2 17
3 17 12 0 8 4 18 8 21 5 3 2 9 -6 12 -12 4 -15 0 -12 -21 2 -15 2 -21 -1 -14
-3 6 -11 9 -17 6 -9 -5 -9 -4 0 6 6 7 9 19 6 27 -4 11 2 13 28 9 19 -3 28 -3
21 0 -8 4 -10 10 -3 17 5 7 11 17 13 22 1 6 6 9 9 8 4 -1 6 8 5 20 -1 15 4 21
14 19 8 -2 12 0 8 4 -4 4 -3 13 3 21 12 13 5 17 -31 14 -8 0 0 6 18 14 33 16
45 29 15 18 -16 -6 -16 -5 -4 10 7 9 10 17 6 17 -4 0 -2 7 5 15 7 8 17 12 23
8 6 -4 7 -1 2 6 -5 9 -11 9 -17 3 -7 -7 -15 -6 -24 3 -18 18 -18 31 0 16 12
-10 17 -8 26 9 6 11 16 17 22 14 7 -5 8 -2 3 6 -4 7 -2 16 6 21 10 6 11 9 2
10 -7 1 -18 2 -25 3 -6 0 -13 8 -15 16 -4 13 -3 13 6 0 10 -13 15 -8 12 12 0
4 6 5 14 2 11 -5 13 -2 9 11 -4 9 -1 20 6 25 8 5 9 10 2 14 -6 3 -13 -3 -17
-14 -7 -20 -25 -28 -25 -10 0 6 4 10 8 10 5 0 14 11 20 25 9 20 8 26 -5 33
-11 6 -12 11 -4 16 6 4 11 2 11 -4 0 -6 5 -8 10 -5 8 5 8 11 1 19 -11 14 -5
26 13 26 6 0 4 -5 -4 -10 -8 -5 -10 -10 -5 -10 6 0 17 5 25 10 12 8 12 10 1
10 -8 0 -11 3 -8 7 4 3 -1 16 -10 27 -14 16 -14 18 -2 8 13 -10 18 -8 28 14 6
15 7 23 1 19 -5 -3 -10 -1 -10 5 0 6 -5 8 -12 4 -7 -4 -8 -3 -4 4 4 6 13 9 20
6 17 -6 31 12 16 21 -6 4 -7 11 -4 17 4 6 2 8 -4 4 -7 -4 -9 2 -6 20 3 18 1
23 -7 18 -8 -4 -9 -3 -5 5 4 6 13 9 19 5 7 -3 4 1 -6 9 -16 13 -16 15 -1 21
23 9 31 7 14 -4 -9 -6 -10 -10 -3 -10 20 0 24 18 7 28 -15 8 -15 10 1 15 9 4
13 11 10 17 -3 5 0 10 7 10 9 0 9 3 -2 10 -8 5 -11 10 -6 10 5 0 3 7 -4 15
-11 13 -10 14 5 9 15 -6 15 -4 4 14 -7 11 -16 19 -19 17 -9 -5 -6 33 3 41 13
14 7 26 -7 15 -11 -9 -16 -9 -22 1 -4 7 -4 10 1 6 4 -4 14 -3 21 3 9 7 18 4
34 -13 l22 -23 -13 25 c-7 14 -12 31 -11 38 2 6 -2 12 -8 12 -6 0 -8 -6 -4
-12 4 -7 -1 -6 -11 4 -23 22 -11 42 16 27 12 -6 23 -8 27 -5 3 3 -1 6 -9 6
-12 0 -11 2 1 11 13 9 13 10 -2 6 -18 -6 -42 15 -31 27 4 4 1 12 -7 17 -12 9
-12 10 3 5 9 -3 17 -1 17 5 0 6 4 8 9 5 5 -3 15 2 22 12 13 15 12 16 -3 3 -15
-11 -18 -11 -18 0 0 12 -2 12 -9 1 -7 -11 -9 -10 -14 3 -4 9 -3 13 3 10 6 -3
10 -2 10 4 0 6 8 8 18 5 14 -5 14 -4 3 4 -13 9 -13 13 0 28 9 11 9 15 2 10 -7
-4 -13 -3 -13 1 0 5 6 15 13 22 6 8 7 11 1 8 -7 -4 -11 5 -11 23 0 18 4 27 11
23 7 -5 7 -2 0 8 -6 8 -10 22 -9 32 2 9 0 15 -5 12 -5 -3 -7 -13 -5 -23 1 -9
-2 -25 -7 -36 -7 -13 -7 -16 1 -12 6 4 11 2 11 -3 0 -13 -10 -14 -30 -1 -8 5
-10 10 -4 10 7 0 15 7 18 16 4 12 2 15 -9 11 -8 -4 -17 -2 -20 4 -4 5 -3 9 2
8 17 -3 33 1 32 9 -1 4 2 18 6 30 6 18 10 20 16 10 5 -8 9 -9 9 -2 0 6 -8 18
-17 25 -11 10 -14 10 -9 2 4 -7 2 -13 -4 -13 -6 0 -8 11 -6 25 3 15 0 25 -7
25 -8 0 -8 3 1 9 8 4 13 11 13 15 -3 18 0 26 16 42 16 16 16 18 -4 33 -18 15
-19 21 -9 39 7 13 15 19 19 16 4 -4 7 -2 7 4 0 15 -17 16 -25 2 -3 -5 -12 -10
-18 -10 -8 0 -8 3 1 9 11 7 10 11 -2 24 -15 14 -15 16 3 14 11 0 18 -4 16 -7
-2 -4 2 -7 10 -7 12 0 12 3 2 15 -6 8 -11 17 -9 19 10 14 -1 31 -18 28 -11 -2
-18 0 -15 5 3 5 18 7 33 4 l27 -4 -25 15 c-14 8 -20 15 -15 15 6 0 1 8 -10 17
-18 14 -18 15 -1 9 14 -5 17 -2 12 9 -4 11 -1 15 11 13 9 -2 18 3 20 10 3 6 0
12 -7 12 -6 0 -8 -5 -4 -12 4 -7 3 -8 -4 -4 -6 4 -8 14 -5 24 5 14 3 15 -8 5
-7 -7 -18 -13 -23 -13 -6 0 -3 5 7 11 9 6 14 15 11 21 -5 7 -2 8 5 3 9 -5 11
1 8 23 -3 16 -1 35 4 43 4 8 3 19 -3 26 -7 9 -6 14 6 19 18 7 22 25 5 21 -6
-1 -13 4 -15 11 -1 7 0 8 3 2 2 -5 9 -7 14 -4 6 3 5 11 -2 20 -7 9 -8 14 -3
12 5 -2 20 5 34 15 26 18 20 23 -10 7 -15 -8 -18 -6 -15 8 1 9 8 16 14 15 6
-2 11 2 11 8 0 5 5 7 12 3 6 -4 8 -3 5 3 -4 6 0 16 8 23 11 9 12 16 3 30 -7
10 -16 16 -21 13 -4 -3 0 -11 9 -17 11 -9 13 -15 6 -20 -6 -3 -16 2 -21 13 -8
15 -7 23 4 35 18 18 20 56 3 56 -7 0 -2 7 10 16 12 8 26 12 32 9 6 -4 7 1 3
11 -4 11 -2 15 4 11 6 -4 10 3 9 16 -1 13 -7 22 -18 22 -25 0 -30 11 -6 12 12
1 29 -3 38 -9 12 -10 13 -10 3 2 -10 11 -9 18 5 34 9 11 11 16 5 12 -8 -4 -13
-2 -14 6 0 7 -2 21 -4 30 -2 10 2 16 8 15 7 -1 12 6 12 16 0 12 13 24 33 32
38 16 44 29 6 15 -32 -12 -34 -12 -34 0 0 5 3 9 8 9 18 -3 32 2 32 12 0 5 -5
7 -12 3 -7 -4 -8 -3 -4 5 6 9 11 9 22 0 12 -10 13 -9 7 7 -6 17 -5 18 13 4 19
-14 19 -14 0 8 -19 22 -10 32 11 11 8 -8 13 -8 18 0 4 7 1 10 -7 9 -7 -2 -12
4 -10 14 1 9 -2 19 -8 23 -5 3 -10 11 -10 16 0 6 7 3 16 -5 18 -19 30 -20 40
-4 4 7 3 8 -4 4 -22 -13 -31 4 -17 31 8 15 11 31 8 36 -3 6 -1 7 5 3 7 -4 12
0 13 11 0 10 3 13 6 6 6 -16 33 -17 33 -2 0 5 -4 7 -10 4 -5 -3 -10 -1 -10 4
0 6 5 11 10 11 6 0 10 5 10 11 0 5 -4 8 -8 5 -5 -3 -9 1 -9 9 0 10 5 11 18 5
12 -7 19 -6 22 5 4 9 1 12 -7 9 -8 -3 -17 -1 -21 5 -3 7 0 8 9 5 10 -4 16 -1
16 9 0 9 5 19 12 23 7 5 9 2 6 -8 -4 -8 -2 -21 3 -29 5 -9 9 -10 9 -2 0 6 8
20 18 29 15 16 15 17 0 12 -12 -5 -16 -2 -15 12 1 12 5 16 10 11 11 -11 37 -3
37 11 0 6 -7 5 -15 -2 -13 -11 -14 -10 -9 6 4 10 10 24 13 29 3 6 6 13 6 18 0
4 3 7 8 7 4 0 10 0 14 0 3 0 -2 -9 -12 -20 -16 -17 -16 -20 -3 -15 9 4 19 13
22 21 3 8 13 11 23 8 14 -4 15 -4 4 4 -11 8 -11 11 0 16 8 3 5 4 -7 1 -13 -4
-26 1 -35 12 -9 13 -9 15 0 7 31 -28 79 22 59 62 -9 19 -9 19 6 0 8 -10 13
-23 10 -27 -3 -5 0 -9 6 -9 8 0 10 10 6 28 l-6 27 13 -24 c12 -19 15 -21 20
-7 3 8 2 18 -4 21 -5 4 -7 11 -3 16 3 5 10 7 15 4 5 -4 9 -1 9 4 0 6 -5 11
-12 11 -6 0 -8 3 -5 7 10 9 48 -28 40 -40 -4 -6 -1 -7 6 -2 9 5 10 10 2 18
-14 14 -14 30 -1 22 6 -3 13 1 16 9 3 9 10 16 16 16 5 0 6 -5 2 -12 -4 -7 -3
-8 5 -4 9 6 9 11 0 22 -12 15 -30 19 -28 7 5 -29 -17 -40 -38 -19 -4 4 -3 7 2
6 24 -5 34 1 30 20 -2 12 0 18 6 14 5 -3 16 -1 24 6 10 8 15 8 21 -1 5 -8 3
-9 -6 -4 -9 6 -11 4 -5 -5 6 -10 11 -10 20 3 7 9 15 14 18 10 7 -6 11 12 8 31
-1 5 5 6 13 3 14 -6 16 9 3 30 -5 7 -1 9 13 6 11 -3 18 -9 15 -12 -2 -4 2 -8
10 -8 7 0 12 8 10 19 -3 12 1 18 10 16 7 -2 14 0 14 5 3 30 0 36 -16 31 -14
-5 -15 -4 -4 4 15 11 44 5 36 -7 -2 -4 2 -8 9 -8 8 0 11 9 8 24 -2 13 1 23 7
23 7 0 10 -4 7 -8 -3 -5 1 -9 9 -9 8 0 13 2 10 5 -2 2 2 17 11 33 16 31 27 39
17 12 -4 -10 -2 -14 4 -10 6 4 14 1 17 -5 3 -7 3 -3 1 9 -3 12 -1 24 5 28 6 3
7 11 4 17 -4 7 -2 8 5 4 9 -6 9 -11 1 -21 -8 -10 -8 -15 1 -21 8 -5 9 -3 4 6
-6 9 -4 12 7 8 11 -5 14 0 10 18 -2 14 0 24 7 24 7 0 9 4 6 10 -4 6 1 7 12 3
16 -6 17 -5 3 13 -14 17 -14 18 2 6 14 -11 18 -10 26 4 9 16 10 15 16 -4 4
-12 12 -22 17 -22 5 0 2 15 -7 33 -16 29 -16 31 -1 18 11 -9 17 -10 18 -2 3
26 4 30 11 37 8 7 4 -21 -7 -48 -4 -11 -2 -16 7 -14 25 3 39 18 34 34 -4 12 3
21 21 30 31 14 46 16 39 4 -3 -5 1 -9 9 -9 12 0 12 3 2 16 -10 12 -9 14 6 8
11 -4 16 -3 12 3 -3 6 -1 10 5 10 7 0 9 7 6 17 -4 10 -4 14 0 10 4 -4 14 -1
22 6 13 9 14 9 8 0 -4 -7 -3 -13 2 -13 17 0 22 13 11 29 -7 9 2 1 20 -17 17
-18 31 -28 31 -23 0 6 -5 13 -10 16 -6 4 -8 10 -5 15 3 5 -3 13 -12 19 -25 14
-7 14 20 -1 21 -10 21 -10 7 7 -14 17 -14 18 8 6 17 -9 27 -9 36 -2 7 6 17 7
21 3 5 -4 5 -1 1 6 -8 14 10 17 19 2 3 -5 11 -10 16 -10 6 0 0 10 -13 23 -13
12 -22 21 -19 20 2 -2 10 2 17 8 8 7 14 6 20 -2 4 -7 3 -9 -4 -5 -6 3 -14 1
-17 -5 -5 -7 0 -9 11 -7 13 3 18 11 17 28 -3 25 -2 25 13 -2 17 -32 22 -35 20
-11 0 10 8 19 19 21 29 6 47 23 41 39 -4 8 -1 11 5 8 6 -4 8 -12 6 -19 -2 -6
0 -20 5 -31 8 -19 8 -19 4 1 -2 12 0 28 5 35 5 8 3 17 -4 21 -7 5 -2 7 13 6
17 -2 24 1 22 11 -3 12 0 12 11 2 10 -8 17 -8 20 -1 3 6 4 5 3 -2 -2 -7 -9
-12 -15 -10 -7 1 -9 -2 -5 -9 4 -7 3 -9 -2 -6 -6 3 -16 1 -24 -4 -12 -7 -11
-8 5 -6 34 7 55 19 55 33 0 7 9 18 19 24 25 13 41 13 21 0 -13 -8 -12 -10 3
-10 12 0 16 -4 11 -12 -4 -7 2 -5 13 5 11 9 23 14 28 10 4 -5 2 3 -5 16 -6 13
-7 21 -2 17 6 -3 12 -1 14 6 3 7 7 5 11 -6 5 -11 3 -15 -5 -10 -7 4 -8 3 -4
-4 9 -15 34 -4 41 18 4 12 12 17 22 13 12 -5 14 -3 8 7 -5 9 -4 11 4 6 9 -6 9
-12 -1 -24 -7 -10 -8 -14 -4 -10 5 4 15 0 23 -10 13 -15 13 -15 3 6 -6 12 -7
22 -2 22 5 0 10 53 11 118 l2 118 -28 0 c-15 -1 -34 -5 -42 -10 -9 -6 -12 -5
-7 2 4 7 -4 10 -24 10 -26 -1 -28 -3 -18 -17 10 -13 9 -13 -7 1 -21 18 -78 20
-104 4 -9 -6 -12 -5 -7 2 4 7 -4 10 -24 10 -26 -1 -28 -3 -17 -17 11 -14 10
-15 -7 -1 -15 12 -51 15 -162 16 -94 1 -141 -2 -137 -9 4 -6 1 -7 -8 -1 -8 5
-52 10 -99 11 -76 2 -83 0 -66 -13 11 -8 15 -14 10 -14 -6 0 -16 6 -22 13 -9
8 -46 12 -107 13 -81 1 -93 -1 -88 -15 3 -13 2 -12 -7 2 -11 17 -66 25 -55 8
3 -5 1 -13 -5 -16 -6 -4 -9 -1 -8 6 2 7 -5 15 -16 17 -13 3 -16 0 -11 -9 6 -8
4 -10 -6 -3 -22 13 -220 14 -212 0 3 -6 0 -6 -8 2 -15 14 -63 17 -54 3 3 -5 1
-13 -5 -16 -6 -4 -9 -1 -8 6 2 7 -5 15 -16 17 -13 3 -16 0 -11 -9 6 -8 4 -10
-6 -3 -7 4 -42 10 -77 11 -50 3 -62 1 -56 -9 6 -10 5 -10 -7 -1 -20 16 -3233
17 -3223 1 5 -7 2 -8 -6 -3 -7 4 -28 9 -46 11 -25 2 -34 -2 -34 -13 0 -12 -3
-11 -17 3 -17 16 -18 16 -21 1 -2 -10 -8 -15 -13 -11 -5 3 -7 9 -5 13 3 3 -4
7 -14 7 -10 0 -16 -4 -13 -9z m4418 -7 c3 -5 1 -10 -4 -10 -6 0 -11 5 -11 10
0 6 2 10 4 10 3 0 8 -4 11 -10z m-4395 -11 c0 -5 -4 -7 -10 -4 -5 3 -10 1 -10
-4 0 -6 -5 -11 -11 -11 -8 0 -8 5 1 15 14 17 30 20 30 4z m-697 -187 c4 9 6 9
6 1 2 -20 -16 -24 -30 -5 -13 15 -12 16 3 4 13 -10 17 -10 21 0z m5462 -51 c3
-5 2 -12 -3 -15 -5 -3 -9 1 -9 9 0 17 3 19 12 6z m-205 -55 c0 -2 -8 -10 -17
-17 -16 -13 -17 -12 -4 4 13 16 21 21 21 13z m-5545 -76 c3 -6 -1 -7 -9 -4
-18 7 -21 14 -7 14 6 0 13 -4 16 -10z m-71 -16 c5 -14 4 -15 -9 -4 -17 14 -19
20 -6 20 5 0 12 -7 15 -16z m5490 7 c3 -5 -2 -15 -12 -22 -15 -13 -16 -12 -4
3 10 13 10 17 0 21 -9 4 -9 6 -1 6 6 1 14 -3 17 -8z m-220 -113 c-2 -3 -13 -6
-24 -5 -24 2 -18 13 9 13 11 0 18 -4 15 -8z m-5469 -37 c-6 -5 -25 10 -25 20
0 5 6 4 14 -3 8 -7 12 -15 11 -17z m-31 0 c3 -5 -1 -14 -8 -20 -12 -10 -14 -9
-11 6 2 10 4 19 4 21 2 5 10 2 15 -7z m5458 -33 c-7 -7 -12 -8 -12 -2 0 14 12
26 19 19 2 -3 -1 -11 -7 -17z m-5571 -65 c12 -16 12 -17 -2 -6 -9 7 -20 9 -24
5 -5 -4 -5 -1 -1 6 9 16 11 15 27 -5z m-161 -168 c0 -2 -10 -9 -22 -15 -22
-11 -22 -10 -4 4 21 17 26 19 26 11z m5361 -18 c-6 -8 -8 -16 -5 -19 10 -11
-23 -16 -37 -6 -11 8 -10 9 4 4 10 -3 17 0 17 8 0 8 6 17 13 19 19 8 20 8 8
-6z m-5438 -21 c4 -10 1 -13 -8 -9 -8 3 -12 9 -9 14 7 12 11 11 17 -5z m5237
-166 c0 -5 -2 -10 -4 -10 -3 0 -8 5 -11 10 -3 6 -1 10 4 10 6 0 11 -4 11 -10z
m-5464 -102 c5 -7 3 -8 -6 -3 -9 5 -10 1 -6 -16 6 -20 5 -21 -4 -6 -6 9 -8 22
-5 27 8 13 12 13 21 -2z m5274 -122 c0 -2 -8 -10 -17 -17 -16 -13 -17 -12 -4
4 13 16 21 21 21 13z m-5400 -56 c0 -5 -5 -10 -11 -10 -5 0 -7 5 -4 10 3 6 8
10 11 10 2 0 4 -4 4 -10z m-103 -177 c-4 -3 -1 -13 6 -21 9 -13 9 -14 0 -8 -7
4 -13 3 -13 -1 0 -5 6 -15 13 -23 9 -11 8 -11 -7 0 -18 14 -19 13 -13 -2 4
-12 2 -15 -8 -12 -12 5 -12 10 2 30 8 13 12 24 9 24 -4 0 -4 5 -1 10 3 6 9 10
12 10 4 0 3 -3 0 -7z m-22 -83 c3 -6 -1 -7 -9 -4 -18 7 -21 14 -7 14 6 0 13
-4 16 -10z m5375 -56 c0 -8 -19 -13 -24 -6 -3 5 1 9 9 9 8 0 15 -2 15 -3z
m-34 -72 c-18 -16 -18 -16 -6 6 6 13 14 21 18 18 3 -4 -2 -14 -12 -24z m-5405
-5 c-6 -8 -7 -18 -3 -22 4 -5 1 -5 -5 -1 -7 4 -14 2 -14 -3 -1 -6 -2 -17 -3
-23 -1 -7 5 -22 13 -33 16 -19 15 -20 -5 -2 -11 9 -23 14 -27 11 -3 -3 -4 1
-3 10 2 17 43 76 53 76 3 0 0 -6 -6 -13z m5376 -9 c-3 -8 -6 -5 -6 6 -1 11 2
17 5 13 3 -3 4 -12 1 -19z m-5411 -90 c4 -6 3 -8 -3 -5 -6 4 -13 0 -17 -8 -3
-8 -1 -15 4 -15 6 0 10 -5 10 -10 0 -6 -8 -5 -20 2 -18 11 -18 14 -3 30 19 21
20 21 29 6z m5400 -65 c-2 -3 -8 -5 -13 -5 -4 0 -15 -5 -23 -11 -9 -7 -8 -4 3
9 9 11 14 25 10 29 -5 5 0 3 10 -4 9 -8 15 -16 13 -18z m-5433 10 c-10 -3 -10
-10 -2 -25 8 -15 8 -19 0 -14 -15 10 -14 -7 2 -24 10 -12 9 -12 -4 -2 -9 6
-19 8 -24 4 -4 -4 -3 3 4 15 6 12 11 26 10 30 -3 16 1 23 14 22 9 0 9 -2 0 -6z
m5367 -163 c0 -5 -5 -10 -11 -10 -5 0 -7 5 -4 10 3 6 8 10 11 10 2 0 4 -4 4
-10z m15 -259 c3 -6 -3 -9 -14 -8 -11 0 -17 5 -15 9 7 11 22 10 29 -1z m8
-137 c-3 -15 -20 -15 -26 0 -4 9 0 13 11 12 9 -2 16 -7 15 -12z m-25 -159 c-3
-3 -9 2 -12 12 -6 14 -5 15 5 6 7 -7 10 -15 7 -18z m20 -121 c1 -1 -4 -7 -12
-13 -11 -9 -16 -9 -22 0 -5 8 -3 9 6 4 8 -5 11 -3 8 6 -3 8 -11 13 -17 11 -7
-1 -10 2 -6 8 5 8 12 7 23 -2 10 -7 18 -13 20 -14z m-4 -38 c-3 -9 -12 -12
-22 -9 -15 6 -9 11 25 22 1 1 0 -5 -3 -13z m-23 -334 c-7 -2 -18 1 -23 6 -8 8
-4 9 13 5 13 -4 18 -8 10 -11z m-33 -131 c-2 -5 6 -17 17 -26 11 -9 13 -13 5
-9 -27 13 -40 26 -34 35 7 12 15 12 12 0z m12 -81 c0 -5 -7 -7 -15 -4 -8 4
-15 8 -15 10 0 2 7 4 15 4 8 0 15 -4 15 -10z m-30 -40 c0 -5 -2 -10 -4 -10 -3
0 -8 5 -11 10 -3 6 -1 10 4 10 6 0 11 -4 11 -10z m-5346 -156 c3 -8 2 -12 -4
-9 -6 3 -10 10 -10 16 0 14 7 11 14 -7z m5315 -66 c-5 -9 -14 -20 -21 -24 -7
-4 -8 -3 -4 4 4 7 1 12 -6 13 -10 0 -10 2 0 6 6 2 10 8 8 12 -3 4 4 7 14 7 14
0 16 -4 9 -18z m-5263 -80 c4 -7 4 -10 -1 -6 -4 4 -14 3 -22 -4 -11 -8 -12 -7
-7 6 7 19 20 21 30 4z m5228 -3 c3 -8 1 -15 -4 -15 -6 0 -10 7 -10 15 0 8 2
15 4 15 2 0 6 -7 10 -15z m-14 -35 c0 -4 -7 -7 -15 -6 -23 3 -26 12 -5 13 11
1 20 -2 20 -7z m-3 -39 c8 7 13 8 13 1 0 -5 -6 -14 -13 -20 -10 -8 -16 -5 -26
11 -10 17 -11 19 0 10 9 -9 16 -10 26 -2z m-14 -42 c4 -3 2 -11 -6 -18 -11 -9
-17 -7 -28 6 -13 17 -13 17 5 3 18 -14 18 -13 11 10 -4 14 -4 21 1 15 5 -5 13
-12 17 -16z m-5143 -39 c0 -5 -2 -10 -4 -10 -3 0 -8 5 -11 10 -3 6 -1 10 4 10
6 0 11 -4 11 -10z m5124 -11 c-8 -14 -21 -11 -21 5 0 8 6 12 14 9 7 -3 10 -9
7 -14z m-100 -187 c3 -5 -1 -9 -9 -9 -8 0 -12 4 -9 9 3 4 7 8 9 8 2 0 6 -4 9
-8z m-4904 -36 c0 -3 -4 -8 -10 -11 -5 -3 -10 -1 -10 4 0 6 5 11 10 11 6 0 10
-2 10 -4z m4835 -85 c-3 -6 -11 -11 -16 -11 -5 0 -4 6 3 14 14 16 24 13 13 -3z
m-4725 -147 c0 -8 -19 -13 -24 -6 -3 5 1 9 9 9 8 0 15 -2 15 -3z m9 -26 c-10
-18 -9 -20 6 -14 15 5 16 4 5 -9 -10 -12 -15 -13 -21 -4 -7 12 6 49 17 49 2 0
0 -10 -7 -22z m4581 -48 c0 -5 -2 -10 -4 -10 -3 0 -8 5 -11 10 -3 6 -1 10 4
10 6 0 11 -4 11 -10z m-83 -95 c0 -8 -4 -12 -9 -9 -5 3 -6 10 -3 15 9 13 12
11 12 -6z m-4217 -225 c0 -5 -2 -10 -4 -10 -3 0 -8 5 -11 10 -3 6 -1 10 4 10
6 0 11 -4 11 -10z m3917 -112 c-3 -8 -6 -5 -6 6 -1 11 2 17 5 13 3 -3 4 -12 1
-19z m-3717 -48 c0 -5 -2 -10 -4 -10 -3 0 -8 5 -11 10 -3 6 -1 10 4 10 6 0 11
-4 11 -10z m160 -139 c0 -5 -7 -12 -16 -15 -14 -5 -15 -4 -4 9 14 17 20 19 20
6z m3210 -134 c0 -1 -12 -3 -28 -3 -15 -1 -21 1 -14 3 6 3 9 9 6 15 -4 6 2 5
15 -1 11 -7 21 -13 21 -14z m-73 -17 c1 -11 -4 -20 -10 -20 -7 0 -6 -4 3 -10
8 -5 11 -10 5 -10 -5 0 -16 4 -23 9 -11 7 -11 9 2 14 9 4 16 10 15 14 -2 11 0
23 4 23 1 0 3 -9 4 -20z m-2827 -64 c0 -2 -7 -7 -16 -10 -8 -3 -12 -2 -9 4 6
10 25 14 25 6z m2625 -46 c3 -5 1 -10 -4 -10 -6 0 -11 5 -11 10 0 6 2 10 4 10
3 0 8 -4 11 -10z m9 -28 c3 -5 -1 -9 -9 -9 -8 0 -15 4 -15 9 0 4 4 8 9 8 6 0
12 -4 15 -8z m-59 -11 c3 -5 0 -13 -6 -17 -7 -4 -9 -3 -5 4 3 5 0 13 -6 15 -9
4 -10 6 -1 6 6 1 14 -3 18 -8z m-2408 -16 c0 -8 -4 -15 -9 -15 -10 0 -11 14
-1 23 9 10 10 9 10 -8z m2317 -3 c3 -5 -1 -9 -9 -9 -8 0 -12 4 -9 9 3 4 7 8 9
8 2 0 6 -4 9 -8z m-2187 -53 c-6 -10 -16 -15 -21 -12 -6 4 -5 8 2 11 7 2 10 7
8 11 -3 4 1 8 8 8 11 0 12 -4 3 -18z m113 -52 c0 -5 -4 -5 -10 -2 -5 3 -10 14
-10 23 0 15 2 15 10 2 5 -8 10 -19 10 -23z m80 -25 c0 -12 -3 -12 -15 -2 -8 7
-15 13 -15 15 0 1 7 2 15 2 8 0 15 -7 15 -15z m33 5 c3 -8 -1 -14 -8 -14 -7 0
-11 6 -8 14 3 7 6 13 8 13 2 0 5 -6 8 -13z m77 -31 c12 -18 11 -19 -2 -9 -8 7
-17 10 -20 7 -3 -2 -8 1 -11 9 -8 22 19 16 33 -7z m30 20 c0 -3 -4 -8 -10 -11
-5 -3 -10 -1 -10 4 0 6 5 11 10 11 6 0 10 -2 10 -4z m70 -40 c0 -3 -4 -8 -10
-11 -5 -3 -10 -1 -10 4 0 6 5 11 10 11 6 0 10 -2 10 -4z m94 -25 c-9 -9 -34
-9 -34 -1 0 5 9 8 20 7 10 -1 17 -3 14 -6z m86 -23 c0 -6 -6 -5 -15 2 -8 7
-15 14 -15 16 0 2 7 1 15 -2 8 -4 15 -11 15 -16z m400 -2 c0 -2 -7 -7 -16 -10
-8 -3 -12 -2 -9 4 6 10 25 14 25 6z m387 -2 c-3 -3 -12 -4 -19 -1 -8 3 -5 6 6
6 11 1 17 -2 13 -5z"/>
<path d="M2250 6352 c0 -7 -7 -12 -16 -12 -8 0 -12 -5 -8 -11 4 -7 11 -6 22 5
9 8 13 19 9 22 -4 4 -7 2 -7 -4z"/>
<path d="M2091 6314 c0 -11 3 -14 6 -6 3 7 2 16 -1 19 -3 4 -6 -2 -5 -13z"/>
<path d="M1985 6295 c-10 -13 -23 -22 -26 -19 -4 2 -10 0 -14 -6 -4 -6 -12 -7
-24 -1 -12 7 -18 6 -18 -2 0 -21 71 -15 79 6 4 10 11 16 16 13 4 -2 9 4 9 15
2 23 2 23 -22 -6z"/>
<path d="M1926 6288 c3 -5 10 -6 15 -3 13 9 11 12 -6 12 -8 0 -12 -4 -9 -9z"/>
<path d="M1860 6256 c0 -2 7 -6 15 -10 8 -3 15 -1 15 4 0 6 -7 10 -15 10 -8 0
-15 -2 -15 -4z"/>
<path d="M1763 6215 c0 -8 4 -12 9 -9 5 3 6 10 3 15 -9 13 -12 11 -12 -6z"/>
<path d="M1537 6123 c5 -13 29 -11 44 4 7 7 1 10 -19 9 -18 -1 -28 -6 -25 -13z"/>
<path d="M1500 6126 c0 -2 7 -9 15 -16 9 -7 15 -8 15 -2 0 5 -7 12 -15 16 -8
3 -15 4 -15 2z"/>
<path d="M7173 6101 c0 -11 5 -18 9 -15 4 3 5 11 1 19 -7 21 -12 19 -10 -4z"/>
<path d="M7030 6071 c0 -5 7 -11 14 -14 10 -4 13 -1 9 9 -6 15 -23 19 -23 5z"/>
<path d="M1406 6062 c-2 -4 4 -8 14 -8 10 0 16 4 14 8 -3 4 -9 8 -14 8 -5 0
-11 -4 -14 -8z"/>
<path d="M7030 6040 c0 -5 5 -10 11 -10 5 0 7 5 4 10 -3 6 -8 10 -11 10 -2 0
-4 -4 -4 -10z"/>
<path d="M6953 6005 c0 -8 4 -12 9 -9 4 3 8 9 8 15 0 5 -4 9 -8 9 -5 0 -9 -7
-9 -15z"/>
<path d="M1171 5934 c-6 -15 -9 -29 -6 -32 3 -3 5 0 5 7 0 7 3 10 8 8 4 -3 8
6 8 19 2 30 0 30 -15 -2z"/>
<path d="M1110 5906 c0 -2 8 -10 18 -17 15 -13 16 -12 3 4 -13 16 -21 21 -21
13z"/>
<path d="M6630 5870 c0 -5 5 -10 11 -10 5 0 7 5 4 10 -3 6 -8 10 -11 10 -2 0
-4 -4 -4 -10z"/>
<path d="M6633 5835 c0 -8 4 -12 9 -9 5 3 6 10 3 15 -9 13 -12 11 -12 -6z"/>
<path d="M6540 5815 c-7 -9 -8 -15 -2 -15 5 0 12 7 16 15 3 8 4 15 2 15 -2 0
-9 -7 -16 -15z"/>
<path d="M6407 5737 c-25 -21 -26 -24 -12 -42 16 -19 16 -19 5 3 -9 18 -8 22
5 22 8 0 15 5 15 11 0 5 4 8 8 5 5 -3 9 1 9 9 0 8 -1 15 -1 15 -1 -1 -13 -11
-29 -23z"/>
<path d="M6301 5634 c0 -11 3 -14 6 -6 3 7 2 16 -1 19 -3 4 -6 -2 -5 -13z"/>
<path d="M616 5491 c3 -7 1 -17 -6 -21 -9 -5 -8 -9 4 -13 8 -3 25 3 38 14 13
11 18 18 11 15 -6 -4 -13 -3 -16 1 -2 5 -2 2 -1 -4 5 -18 -6 -16 -23 5 -8 9
-11 11 -7 3z"/>
<path d="M598 5433 c7 -3 16 -2 19 1 4 3 -2 6 -13 5 -11 0 -14 -3 -6 -6z"/>
<path d="M5948 5293 c7 -3 16 -2 19 1 4 3 -2 6 -13 5 -11 0 -14 -3 -6 -6z"/>
<path d="M5895 5231 c-3 -5 -2 -12 3 -15 5 -3 9 1 9 9 0 17 -3 19 -12 6z"/>
<path d="M5725 5041 c-3 -6 -3 -11 1 -11 4 0 -1 -10 -12 -22 -11 -13 -13 -18
-4 -12 8 5 20 9 25 9 6 0 8 9 7 20 -5 26 -8 29 -17 16z"/>
<path d="M295 5010 c6 -9 4 -12 -7 -8 -9 4 -15 0 -15 -8 0 -18 11 -18 26 0 9
11 9 16 0 22 -8 5 -9 3 -4 -6z"/>
<path d="M5615 4830 c3 -5 8 -10 11 -10 2 0 4 5 4 10 0 6 -5 10 -11 10 -5 0
-7 -4 -4 -10z"/>
<path d="M5640 4829 c0 -5 5 -7 10 -4 6 3 10 8 10 11 0 2 -4 4 -10 4 -5 0 -10
-5 -10 -11z"/>
<path d="M5601 4796 c-9 -11 -8 -15 4 -20 10 -4 14 -2 9 5 -4 6 0 15 7 20 8 5
9 9 3 9 -6 0 -17 -6 -23 -14z"/>
<path d="M112 4694 c-7 -8 -8 -14 -3 -14 10 0 25 19 20 25 -2 1 -10 -3 -17
-11z"/>
<path d="M5536 4632 c-2 -4 -1 -14 3 -21 6 -10 10 -9 14 3 6 16 -8 32 -17 18z"/>
<path d="M5493 4405 c0 -8 4 -12 9 -9 4 3 8 9 8 15 0 5 -4 9 -8 9 -5 0 -9 -7
-9 -15z"/>
<path d="M10 4390 c-11 -7 -11 -10 -2 -10 8 0 10 -5 6 -12 -5 -9 -3 -9 9 1 9
7 14 17 11 22 -6 11 -6 11 -24 -1z"/>
<path d="M5479 4347 c6 -8 8 -16 6 -19 -12 -11 -13 -48 -3 -54 6 -4 8 -2 4 4
-3 6 -2 13 3 17 6 3 7 13 4 22 -4 11 -3 14 6 9 9 -6 9 -3 -1 13 -7 12 -17 21
-22 21 -4 0 -3 -6 3 -13z"/>
<path d="M6 4338 c3 -5 10 -6 15 -3 13 9 11 12 -6 12 -8 0 -12 -4 -9 -9z"/>
<path d="M5475 4250 c-3 -5 -1 -10 4 -10 6 0 11 5 11 10 0 6 -2 10 -4 10 -3 0
-8 -4 -11 -10z"/>
<path d="M5466 4171 c-3 -5 1 -14 9 -21 10 -9 15 -9 15 -1 0 6 -6 11 -12 11
-9 0 -8 4 2 10 9 6 10 10 3 10 -6 0 -14 -4 -17 -9z"/>
<path d="M5480 3990 c8 -5 20 -10 25 -10 6 0 3 5 -5 10 -8 5 -19 10 -25 10 -5
0 -3 -5 5 -10z"/>
<path d="M5469 3911 c0 -3 -2 -14 -4 -23 -2 -12 2 -15 13 -10 11 4 12 7 3 10
-8 3 -7 8 5 16 15 12 15 13 0 13 -9 0 -16 -3 -17 -6z"/>
<path d="M5472 3861 c-11 -7 -11 -9 0 -14 9 -3 15 1 15 9 0 8 -1 14 -1 14 -1
0 -7 -4 -14 -9z"/>
<path d="M5456 3545 c-3 -8 -1 -15 4 -15 6 0 10 7 10 15 0 8 -2 15 -4 15 -2 0
-6 -7 -10 -15z"/>
<path d="M5445 3410 c-3 -5 -1 -10 6 -10 7 0 9 -3 6 -7 -9 -8 12 -33 27 -33 6
0 3 5 -6 11 -9 5 -15 16 -12 23 6 17 -12 31 -21 16z"/>
<path d="M5474 3276 c1 -8 5 -18 8 -22 4 -3 5 1 4 10 -1 8 -5 18 -8 22 -4 3
-5 -1 -4 -10z"/>
<path d="M5435 3190 c-3 -5 -1 -10 4 -10 6 0 11 5 11 10 0 6 -2 10 -4 10 -3 0
-8 -4 -11 -10z"/>
<path d="M5415 3001 c-3 -5 -2 -12 3 -15 5 -3 9 1 9 9 0 17 -3 19 -12 6z"/>
<path d="M5390 2956 c0 -2 7 -7 16 -10 8 -3 12 -2 9 4 -6 10 -25 14 -25 6z"/>
<path d="M77 2613 c-9 -8 12 -33 27 -33 6 0 3 5 -7 11 -9 6 -15 14 -12 20 7
10 2 12 -8 2z"/>
<path d="M5185 2420 c-3 -5 -1 -10 4 -10 6 0 11 5 11 10 0 6 -2 10 -4 10 -3 0
-8 -4 -11 -10z"/>
<path d="M210 2391 c0 -7 -4 -10 -8 -7 -5 3 -9 -2 -9 -10 0 -13 2 -13 16 0 8
9 12 19 8 22 -4 4 -7 2 -7 -5z"/>
<path d="M196 2328 c3 -5 10 -6 15 -3 13 9 11 12 -6 12 -8 0 -12 -4 -9 -9z"/>
<path d="M296 2192 c-3 -4 4 -9 15 -9 23 -2 25 3 4 10 -8 4 -16 3 -19 -1z"/>
<path d="M440 1991 c0 -6 4 -13 10 -16 6 -3 7 1 4 9 -7 18 -14 21 -14 7z"/>
<path d="M593 1744 c0 -9 4 -11 12 -4 7 5 14 9 16 7 2 -1 3 0 1 2 -7 11 -29 7
-29 -5z"/>
<path d="M4748 1743 c7 -3 16 -2 19 1 4 3 -2 6 -13 5 -11 0 -14 -3 -6 -6z"/>
<path d="M696 1651 c-3 -5 2 -15 12 -22 15 -13 16 -12 4 3 -10 13 -10 17 0 21
9 4 9 6 1 6 -6 1 -14 -3 -17 -8z"/>
<path d="M745 1631 c-3 -5 -1 -12 5 -16 5 -3 10 -3 10 1 0 3 6 1 13 -5 8 -6
17 -8 20 -4 4 3 -1 12 -11 19 -21 16 -29 17 -37 5z"/>
<path d="M4605 1600 c-8 -13 8 -18 29 -10 19 6 19 7 -2 12 -12 4 -24 2 -27 -2z"/>
<path d="M4544 1552 c3 -18 18 -20 24 -4 1 5 -4 12 -12 15 -9 4 -13 0 -12 -11z"/>
<path d="M816 1537 c3 -10 9 -15 12 -12 3 3 0 11 -7 18 -10 9 -11 8 -5 -6z"/>
<path d="M873 1515 c0 -8 6 -16 14 -19 11 -4 11 -1 3 14 -13 24 -17 25 -17 5z"/>
<path d="M4476 1477 c3 -10 9 -15 12 -12 3 3 0 11 -7 18 -10 9 -11 8 -5 -6z"/>
<path d="M1030 1387 c0 -10 5 -15 10 -12 9 6 14 -8 11 -27 -2 -13 6 -9 20 10
7 9 10 14 5 10 -5 -4 -17 3 -27 15 -16 20 -18 20 -19 4z"/>
<path d="M4272 1334 c-12 -8 -20 -20 -17 -25 9 -13 38 5 41 25 3 20 4 20 -24
0z m18 -8 c0 -2 -7 -7 -16 -10 -8 -3 -12 -2 -9 4 6 10 25 14 25 6z"/>
<path d="M4090 1189 c0 -5 5 -7 10 -4 6 3 10 8 10 11 0 2 -4 4 -10 4 -5 0 -10
-5 -10 -11z"/>
<path d="M4026 1152 l-19 -27 24 22 c12 12 21 24 18 27 -2 2 -13 -8 -23 -22z"/>
<path d="M1510 1071 c0 -6 4 -13 10 -16 6 -3 7 1 4 9 -7 18 -14 21 -14 7z"/>
<path d="M3740 1056 c0 -3 9 -10 20 -16 11 -6 20 -8 20 -6 0 3 -9 10 -20 16
-11 6 -20 8 -20 6z"/>
<path d="M3677 1023 c-4 -3 -7 -11 -7 -17 0 -6 5 -5 12 2 6 6 9 14 7 17 -3 3
-9 2 -12 -2z"/>
<path d="M1710 990 c0 -5 5 -10 11 -10 5 0 7 5 4 10 -3 6 -8 10 -11 10 -2 0
-4 -4 -4 -10z"/>
<path d="M1750 972 c0 -4 9 -8 19 -8 11 0 17 4 15 8 -7 10 -34 10 -34 0z"/>
<path d="M3511 967 c2 -1 13 -9 24 -17 19 -14 19 -14 6 3 -7 9 -18 17 -24 17
-6 0 -8 -1 -6 -3z"/>
<path d="M3196 892 c-4 -4 -13 -7 -18 -7 -6 0 -12 -6 -14 -13 -1 -7 0 -8 3 -2
3 8 9 8 18 0 9 -7 16 -6 24 4 12 15 0 31 -13 18z"/>
</g>
</svg>
